<svg xmlns="http://www.w3.org/2000/svg" xmlns:xlink="http://www.w3.org/1999/xlink" version="1.1" x="0px" y="0px" viewBox="0 0 100 125" enable-background="new 0 0 100 100" xml:space="preserve">
    <polygon points="62.93,88.968 95.295,73.453 73.394,66.883 93.136,49.087 69.316,51.826 72.328,24.722 55.628,40.875 41.393,11.032   34,43.612 16.752,28.555 25.148,56.949 4.705,52.646 19.855,70.351 7.809,79.294 27.338,88.968 37.502,88.968 30.092,85.296   34.662,81.903 28.914,75.186 36.672,76.819 33.484,66.043 40.029,71.758 42.835,59.396 48.236,70.718 54.573,64.589 53.43,74.874   62.47,73.835 54.978,80.588 63.288,83.081 51.007,88.968 "/>
</svg>