<svg xmlns="http://www.w3.org/2000/svg" xmlns:xlink="http://www.w3.org/1999/xlink" version="1.1" x="0px" y="0px" viewBox="0 0 100 125" enable-background="new 0 0 100 100" xml:space="preserve"><g>
    <path d="M92.178,73.093l-4.883-1.766l-2.442-0.883c-0.813-0.295-1.631-0.579-2.459-0.822c-0.826-0.251-1.661-0.481-2.494-0.71   c-0.829-0.24-1.662-0.475-2.488-0.727l-0.739-0.223l14.626-13.185l5.769-5.198l-7.713,0.888l-18.507,2.127l2.387-21.484   l0.761-6.852l-4.955,4.793L56.374,41.3L44.949,17.351l-3.08-6.456l-1.582,6.976l-5.785,25.49L21.994,32.441l-6.438-5.619   l2.423,8.194l6.435,21.762L9.947,53.732l-7.146-1.504l4.747,5.548l3.436,4.014c1.15,1.335,2.275,2.688,3.39,4.053   c0.562,0.679,1.136,1.346,1.728,1.999c0.596,0.648,1.207,1.285,1.816,1.921l2.183,2.281c-2.886,2.4-5.778,4.791-8.641,7.222   l-1.708,1.451l1.91,0.801l9.133,3.829c3.056,1.251,6.1,2.525,9.167,3.757c-2.837-1.694-5.696-3.345-8.544-5.017l-6.645-3.828   c3.229-2.104,6.436-4.236,9.654-6.351l1.785-1.172l-1.439-1.885l-3.212-4.206c-0.534-0.701-1.069-1.403-1.618-2.092   c-0.553-0.686-1.123-1.356-1.707-2.016c-0.723-0.809-1.44-1.622-2.152-2.439l11.38,2.395l4.073,0.857l-1.18-3.99l-5.192-17.559   l9.206,8.037l3.134,2.736l0.921-4.057l5.121-22.572l9.831,20.608l1.486,3.116l2.481-2.4l10.19-9.856l-1.969,17.73l-0.344,3.096   l3.094-0.355l13.891-1.597L70.069,67.229l-3.278,2.956l4.228,1.268l4.966,1.489c0.829,0.244,1.651,0.507,2.478,0.764   c0.821,0.268,1.645,0.533,2.472,0.779c0.827,0.253,1.665,0.466,2.507,0.668l2.524,0.606l0.077,0.019l-2.465,1.354l-7.125,3.965   l-7.115,3.981l-7.096,4.025l7.581-3.011l7.562-3.052l7.554-3.072l7.534-3.109l4.727-1.951L92.178,73.093z"/>
    <path d="M64.805,83.72L62.8,82.988l-1.852-0.676c-0.618-0.22-1.229-0.465-1.857-0.651l-1.892-0.544l-0.193-0.058l5.482-4.943   l2.307-2.078l-3.085,0.354l-6.958,0.8l0.898-8.089l0.305-2.741l-1.982,1.918l-4.755,4.599l-4.305-9.023l-1.231-2.583l-0.633,2.79   l-2.177,9.59l-4.683-4.088l-2.574-2.248l0.969,3.277l2.418,8.176l-5.406-1.138l-2.844-0.6l1.885,2.218   c0.865,1.018,1.748,2.021,2.588,3.062c0.426,0.516,0.879,1.007,1.348,1.484l0.803,0.834c-1.08,0.903-2.161,1.804-3.231,2.719   l-0.683,0.584l0.763,0.316l3.472,1.441l3.484,1.413l-3.236-1.916l-2.475-1.438c1.215-0.788,2.424-1.586,3.637-2.378l0.713-0.464   l-0.574-0.758l-1.215-1.6c-0.398-0.538-0.814-1.062-1.26-1.561c-0.239-0.267-0.473-0.539-0.708-0.809l4.161,0.875l1.629,0.344   l-0.473-1.598l-1.92-6.493l3.36,2.934l1.253,1.095l0.369-1.623l1.91-8.421l3.668,7.687l0.594,1.246l0.992-0.96l3.766-3.642   l-0.731,6.587l-0.138,1.239l1.238-0.143l5.112-0.587l-4.487,4.044l-1.312,1.183l1.691,0.507l1.884,0.566l1.878,0.585   c0.607,0.186,1.231,0.314,1.849,0.466c-1.183,0.655-2.366,1.309-3.544,1.974c-1.802,1.005-3.591,2.034-5.384,3.059   c1.921-0.756,3.845-1.505,5.756-2.281c1.917-0.765,3.826-1.544,5.733-2.328L64.805,83.72z"/></g>
</svg>