<svg xmlns="http://www.w3.org/2000/svg" xmlns:xlink="http://www.w3.org/1999/xlink" version="1.1" x="0px" y="0px" viewBox="0 0 100 125" enable-background="new 0 0 100 100" xml:space="preserve"><path fill="#000000" d="M9.693,55.753c0,0-2.586,2.545,0,2.545c2.596,0,0,2.631,0,2.631S6.984,61.7,8.95,63.067  c1.969,1.369-2.77,0.623-2.998,0c-0.215-0.618-1.021-2.735-1.133-3.317c-0.103-0.571,0-2.279,0-2.279"/><path fill="#000000" d="M95.628,56.319c-5.181-4.59-11.528-8.293-20.377-10.784l-0.176-0.047h-5.727v-0.636  c0-9.646-7.85-17.494-17.491-17.494h-3.615c-9.641,0-17.502,7.849-17.502,17.494v0.636h-5.409l-0.371,0.047  C15.752,48.129,9.252,52.04,3.945,56.918c-1.019,1.246-1.821,3.352,0.414,6.01C5.893,64.57,7.43,66.09,9.86,67.48l0.011,0.026h0.021  h5.77h7.962v5.135h53.021v-5.135h7.923h5.211h0.558c2.133-1.225,3.585-2.54,4.935-3.943C98.545,59.936,96.534,57.242,95.628,56.319z   M69.349,48.115h5.367c6.409,1.818,11.135,4.303,15.317,7.286c0.063,0.074,2.33,2.896-0.463,2.896H26.567  c3.419-3.943,9.468-7.072,13.238-8.751c0.042-0.013,4.246-1.167,7.395-1.167h22.15v-0.265H69.349z M50.774,30.787v-0.003h1.083  c7.028,0,12.814,5.197,13.855,11.927c-0.146,1.835-1.329,2.194-1.968,2.235h-0.38H46.522c-1.688,0-2.029-0.918-2.081-1.149  C45.264,33.322,50.529,30.89,50.774,30.787z M45.276,31.103c-1.792,2.26-3.574,5.87-4.173,11.437h-0.01c0,0-0.782,2.408-3.947,2.408  c-2.604,0-2.801-1.593-2.801-2.172C35.221,36.978,39.598,32.324,45.276,31.103z M25.505,48.115h4.184c0,0,3.667,0.54,1.03,2.379  c-0.041,0.021-0.062,0.035-0.094,0.063c-3.267,2.109-6.439,4.707-8.294,7.741H6.439C11.61,53.987,17.121,50.494,25.505,48.115z   M73.202,69.229h-46.17v-1.553h46.17V69.229z M89.611,64.437h-12.97H23.621H10.919h-0.298c-1.411-1.097-2.689-2.272-4.184-3.508  h83.132c0,0,3.605,0.026,1.41,2.352C90.538,63.68,90.086,64.067,89.611,64.437z"/><text x="0" y="115" fill="#000000" font-size="5px" font-weight="bold" font-family="'Helvetica Neue', Helvetica, Arial-Unicode, Arial, Sans-serif">Created by Iconic</text><text x="0" y="120" fill="#000000" font-size="5px" font-weight="bold" font-family="'Helvetica Neue', Helvetica, Arial-Unicode, Arial, Sans-serif">from the Noun Project</text></svg>